<?xml version="1.0" encoding="UTF-8"?>
<svg id="Layer_1" xmlns="http://www.w3.org/2000/svg" version="1.1" xmlns:xlink="http://www.w3.org/1999/xlink" viewBox="0 0 2047.96 559.43">
  <!-- Generator: Adobe Illustrator 29.8.2, SVG Export Plug-In . SVG Version: 2.1.1 Build 3)  -->
  <defs>
    <style>
      .st0 {
        fill: url(#linear-gradient2);
      }

      .st1, .st2 {
        fill: #93520a;
      }

      .st3 {
        fill: url(#linear-gradient1);
      }

      .st4 {
        fill: #513703;
      }

      .st5 {
        fill: url(#linear-gradient4);
      }

      .st2 {
        font-family: Nexa-Regular, Nexa;
        font-size: 41.99px;
      }

      .st6 {
        fill: url(#linear-gradient5);
      }

      .st7 {
        fill: url(#linear-gradient3);
      }

      .st8 {
        fill: url(#linear-gradient);
      }
    </style>
    <linearGradient id="linear-gradient" x1="135.8" y1="436.56" x2="135.8" y2="192.03" gradientUnits="userSpaceOnUse">
      <stop offset="0" stop-color="#483100"/>
      <stop offset="1" stop-color="#c18723"/>
    </linearGradient>
    <linearGradient id="linear-gradient1" x1="208.83" y1="440.43" x2="208.83" y2="130.62" xlink:href="#linear-gradient"/>
    <linearGradient id="linear-gradient2" x1="298.45" y1="440.43" x2="298.45" y2="57.59" xlink:href="#linear-gradient"/>
    <linearGradient id="linear-gradient3" x1="327.78" y1="440.43" x2="327.78" y2="92.45" xlink:href="#linear-gradient"/>
    <linearGradient id="linear-gradient4" x1="422.51" y1="441.21" x2="422.51" y2="195.9" xlink:href="#linear-gradient"/>
    <linearGradient id="linear-gradient5" x1="90.05" y1="450.73" x2="455.73" y2="450.73" xlink:href="#linear-gradient"/>
  </defs>
  <g>
    <g>
      <polygon class="st8" points="141.34 436.56 160.7 436.56 145.21 192.03 110.91 227.99 141.34 436.56"/>
      <polygon class="st3" points="192.23 138.36 192.23 440.43 221.56 440.43 225.43 393.4 206.62 135.04 199.98 130.62 192.23 138.36"/>
      <polygon class="st0" points="268.58 67 268.58 440.43 303.99 440.43 328.33 90.23 278.54 57.59 268.58 67"/>
      <polygon class="st7" points="357.1 100.19 350.46 92.45 298.45 128.41 325.01 440.43 357.1 440.43 357.1 100.19"/>
      <polygon class="st5" points="412.34 195.9 447.19 229.65 415.53 441.21 397.82 441.21 412.34 195.9"/>
      <g>
        <line class="st1" x1="152.4" y1="168.24" x2="166.23" y2="436.56"/>
        <polygon class="st4" points="155.97 168.05 166.23 436.56 148.84 168.42 155.97 168.05 155.97 168.05"/>
      </g>
      <g>
        <line class="st4" x1="162.21" y1="157.86" x2="172.32" y2="436.56"/>
        <polygon class="st4" points="165.77 157.71 173.82 434.47 158.64 158.01 165.77 157.71 165.77 157.71"/>
      </g>
      <g>
        <line class="st4" x1="172.32" y1="152.75" x2="179.51" y2="436.56"/>
        <polygon class="st4" points="175.89 152.66 179.51 436.56 168.75 152.84 175.89 152.66 175.89 152.66"/>
      </g>
      <g>
        <line class="st1" x1="183.38" y1="144.45" x2="186.15" y2="440.43"/>
        <polygon class="st4" points="186.95 144.42 186.15 440.43 179.81 144.48 186.95 144.42 186.95 144.42"/>
      </g>
      <g>
        <line class="st4" x1="219.56" y1="105.86" x2="236.84" y2="440.43"/>
        <polygon class="st4" points="223.13 105.67 236.84 440.43 216 106.04 223.13 105.67 223.13 105.67"/>
      </g>
      <g>
        <line class="st4" x1="229.65" y1="95.77" x2="244.24" y2="440.43"/>
        <polygon class="st4" points="233.21 95.62 244.24 440.43 226.08 95.93 233.21 95.62 233.21 95.62"/>
      </g>
      <g>
        <line class="st4" x1="243.76" y1="87.04" x2="252.98" y2="440.43"/>
        <polygon class="st4" points="247.33 86.94 252.98 440.43 240.19 87.13 247.33 86.94 247.33 86.94"/>
      </g>
      <g>
        <line class="st4" x1="257.21" y1="76.95" x2="260.57" y2="440.43"/>
        <polygon class="st4" points="260.77 76.92 260.57 440.43 253.64 76.99 260.77 76.92 260.77 76.92"/>
      </g>
      <g>
        <line class="st4" x1="407.32" y1="139.6" x2="390.04" y2="440.43"/>
        <polygon class="st4" points="410.89 139.81 390.04 440.43 403.76 139.4 410.89 139.81 410.89 139.81"/>
      </g>
      <g>
        <line class="st4" x1="397.24" y1="129.52" x2="382.65" y2="440.43"/>
        <polygon class="st4" points="400.81 129.69 382.65 440.43 393.68 129.35 400.81 129.69 400.81 129.69"/>
      </g>
      <g>
        <line class="st4" x1="383.13" y1="120.78" x2="373.91" y2="440.43"/>
        <polygon class="st4" points="386.69 120.89 373.91 440.43 379.56 120.68 386.69 120.89 386.69 120.89"/>
      </g>
      <g>
        <line class="st4" x1="369.68" y1="110.7" x2="366.32" y2="440.43"/>
        <polygon class="st4" points="373.25 110.74 366.32 440.43 366.11 110.67 373.25 110.74 373.25 110.74"/>
      </g>
    </g>
    <path class="st6" d="M90.05,436.43c44.25,13.78,108.73,28.53,187.38,28.62,74.03.08,135.24-12.85,178.3-25.44"/>
  </g>
  <g>
    <g>
      <path class="st1" d="M1783.13,220.63c4.32.68,11.84,3.28,15.55,5.91,9.96,7.05,12.75,23.25,7.05,33.71-3.78,6.94-11.28,12.5-18.34,15.69,2.88,2.93,5.59,5.03,8,8.37,6.58,9.13,11.66,24.39,20.95,30.79,1.81,1.25,10.84,4.77,10.98,5.36.75,3.24-6.42,1.55-7.53,1.57-5.76.11-11.69.59-17.52-.75-8.42-1.92-13.81-10.47-18.02-17.32-4.79-7.8-10.15-23.13-17.19-27.98-1.33-.91-4.75-1.73-5.12-2.74l.31-2.27c7.32-.95,12.97.02,19.2-4.9,8.56-6.76,9.98-23.14,3.6-31.64-5.82-7.76-17.06-8.34-25.83-6.31-2.17,4.15-.63,8.49-.59,12.44.25,23.32-1.8,47.73-.02,70.72.28,3.68,3.02,6.43-1.14,8.69-3.19,1.73-14.53,2.08-18.16,1.45-5.6-.97-1.07-6.17-.31-8.79,1.7-5.82.66-20.64.65-27.55-.02-11.24-.43-22.69-.71-33.98-.18-7.29,1.88-19.15-2.91-24.58-2.1-2.38-2.34-1.93-4.91-2.94-2.33-.92-2.34-2.94-.99-2.94h53.02Z"/>
      <path class="st1" d="M1425.39,302.13c.22,3.54.81,9.24,2.71,12.35,1.33,2.18,4.6,3.56,4.83,6.32-1.37,1.76-17.32,1.58-20.33,1.33-1.7-.14-3.65-.3-4.87-1.66,3.44-3.52,5.44-6.67,5.87-11.79,1.92-22.4,1.8-45.6.63-68.04-.29-5.66,1.6-9.84-3.22-14.45-1.7-1.62-5.04-2.11-4.6-4.88,7.41-2.06,13.77-2.37,19.95,2.62,7.06,5.7,12.84,13.43,18.89,20.06,12.91,14.13,26.01,28.37,39.01,42.47l4.29,3.57c.31-.07.96-5.32,1.02-6.19.84-13.56.9-33.64-.03-47.16-.29-4.21-.93-8.68-4.41-11.48-1.65-1.33-4.22-1.18-4.75-3.9.67.2,1.41-.66,1.64-.66h28.15c.36,0,1.34.95.33,1.64-1.06.73-3.03.96-4.54,2-3.39,2.34-4.91,5.77-5.27,9.78-.86,9.56.16,20,0,29.45-.22,13.1-.29,26.43.02,39.9.07,3.07.48,14.8-.37,16.71-1.39,3.15-4.72,2.05-6.87.35-4.37-3.45-9.93-10.79-14.02-15.13-15.65-16.64-30.8-33.99-46.51-50.68-2.11-2.24-4.44-4.3-6.56-6.53-.18-.08-.98,1.54-.98,1.63,0,16.91-1.05,35.72,0,52.37Z"/>
      <path class="st1" d="M652.31,335.84c1.51,1.4-3.48,5.92-4.57,6.88-16.57,14.57-43.05,9.99-61.88,2.29-15.99-6.54-30.65-16.82-47.45-21.93-2.09-.64-9.51-1.69-10.48-2.61-1.69-1.62.51-3.26,1.14-4.78,2.96-7.13,1.43-24.7,1.46-33.17-1.29-16.17,1.83-35.29.05-51.1-.17-1.5-.66-2.55-1.44-3.8-1.6-2.57-8.31-6.18-.89-7,3.45-.38,24.9-.39,27.01.51.83.35,1.5,1.16,2.12,1.8-6.73,3.72-6.56,8.8-7.22,15.68,1.45,23.63-1.83,49.34,0,72.71.39,4.97,2.37,7.42,6.88,9.49,8.06,3.7,22.7,7.69,31.62,10.27,16.89,4.89,33.02,9.07,50.87,7.38,2.17-.2,11.91-3.41,12.77-2.61Z"/>
      <path class="st1" d="M1646.32,220.63c.6.07,2.46.55,2.31,1.65-.24,1.66-2.9,3.08-3.85,4.67-2.38,4-1.19,10.9-1.41,15.61-.51,11.46-1.12,23.17-.68,34.72.4,10.55.98,23.86,8.84,31.75,10.13,10.17,31.37,10.24,40.56-1.39,1.47-1.87,5.59-9.45,6.11-11.56.41-1.67-.05-3.35.23-5.01,3.25-19.58.42-41.96.94-61.94-1.46-2.42-4.45-6.86-.38-8.19,1.75-.57,16.54-.69,18.69-.3,1.49.27,2.43,1.8,1.25,2.66-1.85.95-4.07.12-5.87,1.24-3.48,2.15-4.02,7.73-4.25,11.46-1.2,19.7,4.38,57.83-6.23,73.63-13,19.36-54.98,18.8-69.66,1.66-12.4-14.47-8.95-32.94-8.53-50.39.17-7.28-.86-14.34-.68-21.63.06-2.62,1.11-4.8.64-7.79-.71-4.57-4.94-7.07-8.47-9.21l.98-1.63c9.28.83,20.42-1.11,29.46,0Z"/>
      <path class="st1" d="M1207.01,224.95c-.66-.58-.84-1.72-2.47-1.63l-.41-1.7c.19-.6,2.27-.93,2.94-.99,5.2-.45,26.78-.7,30.77.67.67.23,1.22.3,1.64.98.23,1.01-3.24,2.68-3.77,4.73-.41,1.6-.31,4.58,0,6.24,1.08,5.95,7.43,19.61,10.01,25.99,2.17,5.35,4.84,10.51,7.11,15.81,1.03,2.42,6.46,18.23,7.93,18.24,10.77-22.92,18.16-47.5,29.22-70.27,5.76-11.86,17.29-29.88,31.7-31.79,3.02-.4,8.84.67,4.67,3.35-23.09,14.8-29.2,39.03-39.92,62.85-6.35,14.11-13.56,28.43-19.57,42.62-2.6,6.13-4.81,15.49-7.9,20.9-3.89,6.81-7.15.06-9.25-4.17-7.52-15.1-13.13-32.64-19.79-48.29-5.15-12.1-13.55-35.45-22.9-43.55Z"/>
      <path class="st1" d="M1382.19,239.29c-.11.67-1.07,2.76-1.96,2.94-.55-3.12-.91-5.44-2.65-8.16-3.56-5.55-9.13-6.54-15.33-6.93-6.04-.38-12.28.02-18.25.79l-1,.96-.09,37.56c7.92-.73,15.16,2.84,23.09.5,5.14-1.52,5.24-5.88,8.66-9,2.71,2.15.98,4.32.95,6.83-.05,3.92.79,13.27-.05,16.31-.1.37-.8,1.36-1.23.74-2.32-1.54-3.96-7.53-6.87-7.53h-24.55v40.59h27.82c.66,0,8.82-5.14,9.93-6.11.64-.56,2.89-2.84,3.4-3.47,1.91-2.36,3.87-9.23,7.22-5.7l-4.04,19.36c-.79,2.73-2.8,3.17-5.37,3.43-18.19-1.57-37.61,1.01-55.68-.29-11.94-.86-4.34-4.47-2.9-11.46v-77.94c-.2-1.74-1.81-5.6-3.01-6.81-2.06-2.08-5.71-1.79-7.47-4.3-.01-.89,6.25-1.59,7.49-1.67,6.25-.41,12.32.59,18.33.71,10.65.22,23.57.31,34.1,0,1.76-.05,9.46-1.88,9.46.95,0,4.9.74,13.31,0,17.67Z"/>
      <path class="st1" d="M1900.63,240.59c-.07.5-.92,1.4-.69,2.27l-1.93.03c-.79-11.48-8.14-15.01-18.63-15.74-6.14-.43-13.46-.29-19.34,1.34v36.98c1.18,1.57,3.03,2.1,4.91,2.29,3.56.38,15.05.55,18.31-.03,1.22-.22,3.07-1.68,3.98-2.57,2.44-2.37,3.1-6.4,6.19-7.23v27.49c-2.07.42-1.81-2.86-2.49-4.39-.87-1.96-4.99-6.74-7-6.74h-23.24v40.59h26.51c.26,0,4.23-1.43,4.84-1.7,4.7-2.03,9.79-7.47,12.39-11.83,1.46-2.45,2.15-8.52,5.04-6.12,1.22,2.04-1.66,9.57-2.25,12.19-1.06,4.78-.5,12.25-5.93,13.71-2.11.56-8.79.87-11.45.99-15.48.69-31.13-.72-46.51-.72-2.09,0-11.61,1.93-12.11-.3-.33-1.5,4.26-1.97,5.85-3.31,3.3-2.79,3.74-8.24,4-12.37,1.42-22.81-1.12-47.1-.03-70.07-.73-3.43-.59-7.16-3.33-9.76-1.48-1.41-3.99-1.79-4.52-4.31,1.21-.3,2.29-.61,3.57-.69,17.29-1.19,36.19.61,53.74.06,2.8-.09,5.88-1.53,8.8-.35l1.32,1.3c-.57,5.95.77,13.22,0,18.98Z"/>
      <path class="st1" d="M1137.7,314.89c6.02-1.16,12.86-7.61,16.2-12.61.65-.96,3.09-6.34,3.45-6.39,1.07-.16,1.77.06,2.24,1.08-.22,5.3-2.17,10.25-3.69,15.15-1.02,3.3-.68,7.19-4.57,9.18-2.61-.21-5.16.66-7.7.81-16.73.95-42.55,1.19-58.97-.66-.96-.11-1.66-.13-2.26-1.01,3.31-.97,5.69-3.29,7.72-6.02,1.82-27.55,1.44-55.27,1.4-82.97-.49-1.29-.94-3.11-1.65-4.24-1.53-2.43-5.04-3.1-4.85-5.94.19-.29,6.13-1.25,6.94-1.26,1.29-.01,2.47.63,3.83.63,17.98-.04,35.97-.11,53.94.05,1.19.81.7,10.52.74,12.68.04,2.38,1.04,4.71,0,7.53-3.7-2.98-2.41-7.26-6.87-10.47-5.53-3.97-18.77-3.82-25.52-3.27-2.21.18-6.56.41-6.86,2.96l.6,36.03c7.61.55,18.23,3.77,25.14-.48,2.5-1.54,3.44-4.38,6.01-5.78.2-.06.98,1.54.98,1.63v18.98c0,.1-.8,1.72-.98,1.63l-7.2-7.85h-24.55v40.59h26.51Z"/>
      <path class="st1" d="M887.31,236.67c-.02.25-.52.77-.61,1.36-.22,1.52.79,4.08-1.35,3.56.37-7.32-7.62-13.34-14.24-14.24-3.1-.42-21.93-.56-23.59.62l-.48,1.13.45,37.91c3.65,1.82,7.76.28,11.35.11,2.59-.13,5.3.21,7.85,0,4.84-.41,11.32-3.64,11.47-9.16l2.61.98v23.57l-1.3.98c-1.17-3.27-4.17-8.08-7.68-9.02-4.5-1.2-9.14-.23-13.57-.12-3.6.09-7.24-.12-10.83-.03v40.59h27.82c.37,0,5.79-2.67,6.66-3.16,6.54-3.73,8.66-9.6,12.98-15.15.96.63.9,1.25,1.01,2.25.36,3.1-2.29,14.21-3.34,17.67-1.42,4.67-3.47,5.2-8.15,5.6-9.01.77-19.2.02-28.11-.03-9.23-.05-21.33,1-30.14-.62-4.59-.84.07-5.21.79-7.07.52-1.35.76-2.92.87-4.36,1.23-15.55.49-33.51-.05-49.09-.89-8.17,1.02-17.7.7-25.54-.2-4.92-1.85-9.15-6.61-11.1-1.17-.48-2.48-.49-3.71-.87-2.15-.68-.17-3.31,1.44-2.81,20.5-.44,41.11.69,61.59.07,1.17-.04,6.19-1.53,6.19.95v15.06Z"/>
      <path class="st1" d="M639.36,290.81l-8.64,22.51c-1.14,2.75,5.17,6.64,3.61,8.79-1.27,1.76-8.33,0-10.47-.06-4.58-.13-9.19.15-13.77.03l-.33-1.64c1.72-1.37,3.71-1.56,5.56-2.95,4.8-3.6,10.02-18.05,12.55-24.11,8.67-20.78,17.41-41.29,25.43-62.29.8-2.09,4.92-12.13,6.2-12.78,1.08-.49,2.36-.53,3.48-.2,3.55,1.06,8.29,16.25,9.97,20.15,9.94,23.11,19.25,48.8,30.5,70.96,1.82,3.58,7.03,7.65,2.13,10.79-3.48,2.23-17.62,2.05-20.88-.54-2.05-1.63-1.48-5.15-2.17-7.65-1.98-7.19-5.26-13.9-8-20.8-2.35-3.24-14.74-1.13-18.58-1-5.53.18-11.18-.65-16.58.77ZM670.64,283.47l-1.52-7.32-12.22-29.33-13.73,35.02c.12,1.58,7.17.87,8.81.98,1.11.07,2.17.6,3.28.65,5.11.22,10.28-.16,15.38,0Z"/>
      <path class="st1" d="M744.46,223.11c-.98.87-3.82.68-4.75,2.76-.66,1.49-.49,5.67-.19,7.37,7.26,18.52,13.81,38.3,22.31,56.24.45.95,1.52,4.11,2.73,3.8,1.16-1.82,2.34-4,3.2-5.97,7.05-16.11,16.46-37.47,21.17-54.11,1.15-4.07,1.38-5.26-1.11-8.82-.7-1-2.59-.87-1.97-3.1.45-.68,12.67-.96,14.73-.96,3.23,0,8.12-.06,11.16.26,2.56.28,2.66,1.99.96,2.99-1,.59-2.4.1-3.45.47-6.94,2.45-12.18,13.85-15.02,20.33-10.4,23.8-18.72,48.8-29.87,72.25-1.05,2.21-3.53,8.77-6.99,5.44-1.44-1.39-5-9.17-6.13-11.54-6.78-14.32-12.08-29.82-18.43-44.42-4.37-10.06-10.76-26.74-16.24-35.48-.98-1.56-2.66-3.26-4.05-4.46-1.85-1.61-7.41-3.67-2.96-5.56,10.63.87,23.02-1.15,33.42-.03.99.11,1.63.04,2.24,1.01-.49.33-.47,1.22-.79,1.5Z"/>
      <path class="st1" d="M1572.02,228.48v82.81c0,.91,2.18,5.12,2.51,6.44-.09,1.28-2.45,3.24-3.64,3.55-2.06.53-13.8.49-16.17.12-6.63-1.03-2.16-6.17-1.73-9.51,1.82-14.03.14-30.26.02-44.43-.09-10.3.57-20.65.03-30.8-.14-2.72.1-5.47,0-8.18h-21.27c-1.45,0-6.08,3.72-7.67,4.17-1.28.36-3.9.07-4.35-1.31-.22-4.14-1.49-7.86-.03-11.96l17.26,1.27c19.67-1.12,40.78,1.39,60.28,0,2.62-.19,5.06-1.26,7.7-1.25,1.86.97,2.44,2.84,2.48,4.82.04,1.62-.53,7.5-.85,9.03-.2.95-.76,1.79-1.5,2.42-3.56-3.86-6.45-6.88-11.95-7.68-1.84-.26-21.11-.57-21.11.49Z"/>
      <path class="st1" d="M1050.63,314.89c2.67-.52,8.12-3.59,10.17-5.54,2-1.9,7.93-11.54,9.47-11.47,2.36,2.04.23,4.81-.18,7.01-.51,2.74-2.24,15.62-3.9,16.54-3.98,1.19-8.19.44-12.29.65-12,.6-24.06.39-35.98.03-7.1-.22-14.28-.06-21.3-1.35.27-1.07,1.91-1.1,2.95-1.95,2.62-2.14,4.38-4.75,4.92-8.17l-.37-80.84c-.46-1.28-3.71-4.73-4.93-5.55-1.43-.96-3.24-.38-3.88-2.67-.15-.57,2.96-.97,3.56-1.01,8.61-.55,21.59-.59,30.18,0,1.27.09,2.36.39,3.57.7-.36,2.41-2.44,2.28-3.61,3.26-6.25,5.27-4.63,6.59-4.9,14.08-.82,22.11-2.17,49.31-.68,71.38.11,1.67.74,3.21.68,4.88h26.51Z"/>
      <path class="st1" d="M937.71,314.89h27.17c.23,0,3.67-1.44,4.2-1.69,5.77-2.74,9.11-8.44,12.81-13.32,2.33,1,2.44,1.76,2.32,4.2-.19,3.69-1.91,11.67-2.78,15.58-.19.87-.69,2.04-1.59,2.34-7.38.07-14.8.26-22.18.13-13.25-.24-26.9.3-39.88,0-2.47-.06-6.27-1-8.86-1.35l6.98-4.13c1.45-1.85,2-3.65,2.2-5.98,1.1-12.54.52-29.56.66-42.55.09-8.87,1.35-31.36-1.53-38.46-1.3-3.2-4.69-6.46-8.32-6.41l.3-1.99c.53-.65,1.23-.57,1.96-.65,6.6-.76,24.89-.76,31.49,0,6.01.69-.46,3.9-1.61,5-2.22,2.11-3.69,6.75-3.98,9.76-1.91,19.66,1.44,42.24-.03,62.21l.68,17.32Z"/>
    </g>
    <text class="st2" transform="translate(674.89 401.03)"><tspan x="0" y="0">WE JUST DON&apos;T SELL HOMES WE UNLOCK DREAMS</tspan></text>
  </g>
</svg>